<svg xmlns="http://www.w3.org/2000/svg" x="0px" y="0px" width="100" height="100" viewBox="0 0 100 100">
<path fill="#c7ede6" d="M87.215,56.71C88.35,54.555,89,52.105,89,49.5c0-6.621-4.159-12.257-10.001-14.478 C78.999,35.015,79,35.008,79,35c0-11.598-9.402-21-21-21c-9.784,0-17.981,6.701-20.313,15.757C36.211,29.272,34.638,29,33,29 c-7.692,0-14.023,5.793-14.89,13.252C12.906,43.353,9,47.969,9,53.5C9,59.851,14.149,65,20.5,65c0.177,0,0.352-0.012,0.526-0.022 C21.022,65.153,21,65.324,21,65.5C21,76.822,30.178,86,41.5,86c6.437,0,12.175-2.972,15.934-7.614C59.612,80.611,62.64,82,66,82 c4.65,0,8.674-2.65,10.666-6.518C77.718,75.817,78.837,76,80,76c6.075,0,11-4.925,11-11C91,61.689,89.53,58.727,87.215,56.71z"></path><path fill="#fdfcef" d="M72.125,39.5c0,0-3.64,0-6.125,0s-4.5-2.015-4.5-4.5c0-2.333,1.782-4.229,4.055-4.455 C65.533,30.364,65.5,30.187,65.5,30c0-2.485,2.015-4.5,4.5-4.5c1.438,0,2.703,0.686,3.527,1.736 C73.667,24.6,75.829,22.5,78.5,22.5c2.761,0,5,2.239,5,5c0,0.446-0.077,0.87-0.187,1.282c0.642-0.777,1.6-1.282,2.687-1.282 c1.781,0,3.234,1.335,3.455,3.055C89.636,30.533,89.813,30.5,90,30.5c2.485,0,4.5,2.015,4.5,4.5s-2.015,4.5-4.5,4.5s-9.5,0-9.5,0 h-5.375V40h-3V39.5z"></path><path fill="#472b29" d="M78.5,22c3.033,0,5.5,2.467,5.5,5.5c0,0.016,0,0.031,0,0.047C84.602,27.192,85.29,27,86,27 c1.831,0,3.411,1.261,3.858,3.005C89.905,30.002,89.952,30,90,30c2.757,0,5,2.243,5,5s-2.243,5-5,5H75.125 c-0.276,0-0.5-0.224-0.5-0.5s0.224-0.5,0.5-0.5H90c2.206,0,4-1.794,4-4s-1.794-4-4-4c-0.117,0-0.23,0.017-0.343,0.032 l-0.141,0.019c-0.021,0.003-0.041,0.004-0.062,0.004c-0.246,0-0.462-0.185-0.495-0.437C88.768,29.125,87.496,28,86,28 c-0.885,0-1.723,0.401-2.301,1.1c-0.098,0.118-0.241,0.182-0.386,0.182c-0.078,0-0.156-0.018-0.228-0.056 c-0.209-0.107-0.314-0.346-0.254-0.573C82.946,28.218,83,27.852,83,27.5c0-2.481-2.019-4.5-4.5-4.5 c-2.381,0-4.347,1.872-4.474,4.263c-0.011,0.208-0.15,0.387-0.349,0.45c-0.05,0.016-0.101,0.024-0.152,0.024 c-0.15,0-0.296-0.069-0.392-0.192C72.362,26.563,71.221,26,70,26c-2.206,0-4,1.794-4,4c0,0.117,0.017,0.23,0.032,0.343 l0.019,0.141c0.016,0.134-0.022,0.268-0.106,0.373c-0.084,0.105-0.207,0.172-0.34,0.185C63.549,31.247,62,32.949,62,35 c0,2.206,1.794,4,4,4h6.125c0.276,0,0.5,0.224,0.5,0.5s-0.224,0.5-0.5,0.5H66c-2.757,0-5-2.243-5-5 c0-2.397,1.689-4.413,4.003-4.877C65.001,30.082,65,30.041,65,30c0-2.757,2.243-5,5-5c1.176,0,2.293,0.416,3.183,1.164 C73.781,23.76,75.945,22,78.5,22L78.5,22z"></path><path fill="#472b29" d="M80,29c1.403,0,2.609,0.999,2.913,2.341C83.28,31.119,83.699,31,84.125,31 c1.202,0,2.198,0.897,2.353,2.068C86.681,33.022,86.874,33,87.063,33c1.529,0,2.811,1.2,2.918,2.732 C89.99,35.87,89.886,35.99,89.749,36c-0.006,0-0.012,0-0.018,0c-0.13,0-0.24-0.101-0.249-0.232 c-0.089-1.271-1.151-2.268-2.419-2.268c-0.229,0-0.47,0.042-0.738,0.127c-0.022,0.007-0.045,0.01-0.067,0.01 c-0.055,0-0.11-0.02-0.156-0.054C86.038,33.537,86,33.455,86,33.375c0-1.034-0.841-1.875-1.875-1.875 c-0.447,0-0.885,0.168-1.231,0.473c-0.047,0.041-0.106,0.063-0.165,0.063c-0.032,0-0.063-0.006-0.093-0.019 c-0.088-0.035-0.148-0.117-0.155-0.212C82.377,30.512,81.288,29.5,80,29.5c-0.208,0-0.425,0.034-0.682,0.107 c-0.023,0.007-0.047,0.01-0.07,0.01c-0.109,0-0.207-0.073-0.239-0.182c-0.038-0.133,0.039-0.271,0.172-0.309 C79.483,29.04,79.744,29,80,29L80,29z"></path><path fill="#78a0cf" d="M68.625,75h-31.25C33.854,75,31,72.146,31,68.625v-31.25C31,33.854,33.854,31,37.375,31h31.25 C72.146,31,75,33.854,75,37.375v31.25C75,72.146,72.146,75,68.625,75z"></path><path fill="#fff" d="M53,36L38,48v3.126c4.025-1.701,13.38-5.364,21-6.126l2,3c0,0-0.067,0.018-0.19,0.051 c0.117,0.094,0.231,0.188,0.356,0.283c-3.57,1.961-7.379,5.363-10.412,8.415c7.611-2.475,14.704-3.386,17.246-3.653V48L53,36z"></path><path fill="#fff" d="M42.5,60.083c2.264-3.337,6.004-6.748,9.3-9.405c-4.412,1.368-9.617,3.117-13.8,4.894V68h30 v-9.565C53.274,59.867,45,64,45,64S43.417,61.667,42.5,60.083z"></path><path fill="#472b29" d="M50.754,56.998c-0.085,0-0.167-0.043-0.213-0.119c-0.061-0.098-0.046-0.225,0.036-0.307 c3.824-3.847,7.261-6.644,10.221-8.319c-0.24-0.347-0.761-1.14-1.927-2.988c-2.058,0.216-4.4,0.66-6.966,1.321 c-0.134,0.035-0.27-0.046-0.305-0.18c-0.034-0.134,0.046-0.27,0.18-0.304c2.654-0.684,5.075-1.138,7.195-1.35 c0.095-0.008,0.186,0.035,0.236,0.115c0.748,1.186,1.987,3.128,2.13,3.289c0.067,0.051,0.093,0.122,0.086,0.207 c-0.006,0.085-0.066,0.15-0.141,0.19c-2.788,1.531-6.022,4.101-9.625,7.645c6.997-2.168,13.385-3.034,16.088-3.327v-4.75 L53,36.32l-2.994,2.396c-0.108,0.087-0.265,0.069-0.352-0.039c-0.086-0.108-0.069-0.265,0.039-0.352l3.15-2.52 c0.092-0.073,0.221-0.073,0.313,0l15,12c0.059,0.048,0.094,0.119,0.094,0.195v5.095c0,0.128-0.097,0.235-0.224,0.249 c-2.66,0.279-9.661,1.193-17.194,3.642C50.806,56.994,50.78,56.998,50.754,56.998z"></path><path fill="#472b29" d="M38,51.376c-0.048,0-0.097-0.014-0.138-0.042c-0.07-0.046-0.112-0.125-0.112-0.208V48 c0-0.076,0.035-0.148,0.094-0.195l3.75-3c0.109-0.086,0.266-0.069,0.352,0.039s0.069,0.265-0.039,0.352L38.25,48.12v2.629 c2.313-0.968,6.549-2.645,11.127-3.986c0.133-0.04,0.272,0.037,0.31,0.17c0.039,0.133-0.037,0.271-0.169,0.31 c-4.793,1.404-9.213,3.179-11.42,4.113C38.066,51.369,38.033,51.376,38,51.376z"></path><path fill="#472b29" d="M43.655,43.726c-0.073,0-0.146-0.032-0.195-0.094c-0.086-0.108-0.069-0.265,0.039-0.352 l4.573-3.658c0.108-0.086,0.266-0.069,0.352,0.039s0.069,0.265-0.039,0.352l-4.573,3.658 C43.765,43.708,43.71,43.726,43.655,43.726z"></path><path fill="#472b29" d="M68,68.25H38c-0.138,0-0.25-0.112-0.25-0.25V55.572c0-0.1,0.06-0.191,0.152-0.23 c4.433-1.884,9.964-3.706,13.823-4.903c0.115-0.036,0.238,0.016,0.295,0.121c0.056,0.106,0.03,0.237-0.064,0.312 c-4.191,3.38-7.272,6.482-9.161,9.221c0.76,1.294,1.919,3.033,2.292,3.588c1.054-0.49,6.258-2.775,14.807-4.362 c0.134-0.025,0.266,0.064,0.291,0.2c0.025,0.136-0.064,0.266-0.2,0.292c-9.497,1.763-14.82,4.385-14.873,4.412 c-0.112,0.056-0.249,0.02-0.319-0.083c-0.016-0.023-1.599-2.359-2.509-3.932c-0.048-0.083-0.044-0.186,0.009-0.266 c1.757-2.589,4.563-5.492,8.35-8.641c-3.687,1.165-8.459,2.775-12.393,4.435V67.75h29.5v-9.04 c-1.86,0.186-3.711,0.426-5.507,0.712c-0.142,0.021-0.265-0.071-0.287-0.208c-0.021-0.136,0.071-0.264,0.208-0.286 c1.895-0.302,3.85-0.552,5.812-0.743c0.076-0.006,0.14,0.016,0.192,0.064s0.082,0.115,0.082,0.185V68 C68.25,68.138,68.138,68.25,68,68.25z"></path><g><path fill="#472b29" d="M68.625,75.7h-31.25c-3.901,0-7.075-3.174-7.075-7.075v-31.25c0-3.901,3.174-7.075,7.075-7.075 h31.25c3.901,0,7.075,3.174,7.075,7.075v31.25C75.7,72.526,72.526,75.7,68.625,75.7z M37.375,31.7 c-3.129,0-5.675,2.546-5.675,5.675v31.25c0,3.129,2.545,5.675,5.675,5.675h31.25c3.129,0,5.675-2.546,5.675-5.675v-31.25 c0-3.129-2.545-5.675-5.675-5.675H37.375z"></path></g><g><path fill="#fff" d="M17.405,45H7.5C7.224,45,7,44.776,7,44.5S7.224,44,7.5,44h9.905c0.276,0,0.5,0.224,0.5,0.5 S17.682,45,17.405,45z"></path><path fill="#fff" d="M20.5,45h-1c-0.276,0-0.5-0.224-0.5-0.5s0.224-0.5,0.5-0.5h1c0.276,0,0.5,0.224,0.5,0.5 S20.777,45,20.5,45z"></path><path fill="#fff" d="M25.491,47H16.5c-0.276,0-0.5-0.224-0.5-0.5s0.224-0.5,0.5-0.5h8.991c0.276,0,0.5,0.224,0.5,0.5 S25.767,47,25.491,47z"></path><path fill="#fff" d="M14.5,47h-1c-0.276,0-0.5-0.224-0.5-0.5s0.224-0.5,0.5-0.5h1c0.276,0,0.5,0.224,0.5,0.5 S14.777,47,14.5,47z"></path><path fill="#fff" d="M11.5,47h-2C9.224,47,9,46.776,9,46.5S9.224,46,9.5,46h2c0.276,0,0.5,0.224,0.5,0.5 S11.777,47,11.5,47z"></path><path fill="#fff" d="M17.5,49h-2c-0.276,0-0.5-0.224-0.5-0.5s0.224-0.5,0.5-0.5h2c0.276,0,0.5,0.224,0.5,0.5 S17.776,49,17.5,49z"></path><path fill="#fff" d="M20.5,40c-0.177,0-0.823,0-1,0c-0.276,0-0.5,0.224-0.5,0.5c0,0.276,0.224,0.5,0.5,0.5 c0.177,0,0.823,0,1,0c0.276,0,0.5-0.224,0.5-0.5C21,40.224,20.776,40,20.5,40z"></path><path fill="#fff" d="M20.5,42c-0.177,0-4.823,0-5,0c-0.276,0-0.5,0.224-0.5,0.5c0,0.276,0.224,0.5,0.5,0.5 c0.177,0,4.823,0,5,0c0.276,0,0.5-0.224,0.5-0.5C21,42.224,20.776,42,20.5,42z"></path><path fill="#fff" d="M25.5,44c-0.177,0-2.823,0-3,0c-0.276,0-0.5,0.224-0.5,0.5c0,0.276,0.224,0.5,0.5,0.5 c0.177,0,2.823,0,3,0c0.276,0,0.5-0.224,0.5-0.5C26,44.224,25.776,44,25.5,44z"></path></g><g><path fill="#fff" d="M89.5,66h-10c-0.276,0-0.5-0.224-0.5-0.5s0.224-0.5,0.5-0.5h10c0.276,0,0.5,0.224,0.5,0.5 S89.776,66,89.5,66z"></path><path fill="#fff" d="M93.5,66h-2c-0.276,0-0.5-0.224-0.5-0.5s0.224-0.5,0.5-0.5h2c0.276,0,0.5,0.224,0.5,0.5 S93.776,66,93.5,66z"></path><path fill="#fff" d="M98.5,68h-10c-0.276,0-0.5-0.224-0.5-0.5s0.224-0.5,0.5-0.5h10c0.276,0,0.5,0.224,0.5,0.5 S98.777,68,98.5,68z"></path><path fill="#fff" d="M86.5,68h-1c-0.276,0-0.5-0.224-0.5-0.5s0.224-0.5,0.5-0.5h1c0.276,0,0.5,0.224,0.5,0.5 S86.776,68,86.5,68z"></path><path fill="#fff" d="M83.375,68H81.5c-0.276,0-0.5-0.224-0.5-0.5s0.224-0.5,0.5-0.5h1.875c0.276,0,0.5,0.224,0.5,0.5 S83.651,68,83.375,68z"></path><path fill="#fff" d="M92.5,64h-5c-0.276,0-0.5-0.224-0.5-0.5s0.224-0.5,0.5-0.5h5c0.276,0,0.5,0.224,0.5,0.5 S92.777,64,92.5,64z"></path><path fill="#fff" d="M89.5,70h-2c-0.276,0-0.5-0.224-0.5-0.5s0.224-0.5,0.5-0.5h2c0.276,0,0.5,0.224,0.5,0.5 S89.776,70,89.5,70z"></path></g><g><path fill="#fdfcef" d="M15.5,69.5c0,0-1.567,0-3.5,0S8.5,67.933,8.5,66c0-1.781,1.335-3.234,3.055-3.455 C11.527,62.366,11.5,62.187,11.5,62c0-1.933,1.567-3.5,3.5-3.5c1.032,0,1.95,0.455,2.59,1.165 c0.384-1.808,1.987-3.165,3.91-3.165c2.209,0,4,1.791,4,4c0,0.191-0.03,0.374-0.056,0.558C25.872,60.714,26.408,60.5,27,60.5 c1.228,0,2.245,0.887,2.455,2.055C29.634,62.527,29.813,62.5,30,62.5c1.933,0,3.5,1.567,3.5,3.5s-1.567,3.5-3.5,3.5s-7.5,0-7.5,0 V70h-7V69.5z"></path><path fill="#472b29" d="M13.75,65c0.138,0,0.25-0.112,0.25-0.25c0-1.223-0.995-2.218-2.218-2.218 c-0.034,0.009-0.737-0.001-1.244,0.136c-0.133,0.036-0.212,0.173-0.176,0.306c0.036,0.134,0.173,0.213,0.306,0.176 c0.444-0.12,1.1-0.12,1.113-0.118c0.948,0,1.719,0.771,1.719,1.718C13.5,64.888,13.612,65,13.75,65z"></path><circle cx="20.5" cy="69.5" r=".5" fill="#472b29"></circle><path fill="#472b29" d="M12,70h3.5c0.276,0,0.5-0.224,0.5-0.5S15.776,69,15.5,69H12c-1.654,0-3-1.346-3-3 c0-1.496,1.125-2.768,2.618-2.959c0.134-0.018,0.255-0.088,0.336-0.196s0.115-0.244,0.094-0.377C12.025,62.314,12,62.16,12,62 c0-1.654,1.346-3,3-3c0.85,0,1.638,0.355,2.219,1c0.125,0.139,0.321,0.198,0.5,0.148c0.182-0.049,0.321-0.195,0.36-0.379 C18.42,58.165,19.859,57,21.5,57c1.93,0,3.5,1.57,3.5,3.5c0,0.143-0.021,0.28-0.041,0.418c-0.029,0.203,0.063,0.438,0.242,0.54 c0.179,0.102,0.396,0.118,0.556-0.01C26.122,61.155,26.551,61,27,61c0.966,0,1.792,0.691,1.963,1.644 c0.048,0.267,0.296,0.446,0.569,0.405C29.686,63.025,29.84,63,30,63c1.654,0,3,1.346,3,3s-1.346,3-3,3h-7.5 c-0.276,0-0.5,0.224-0.5,0.5s0.224,0.5,0.5,0.5H30c2.206,0,4-1.794,4-4s-1.794-4-4-4c-0.059,0-0.116,0.002-0.174,0.006 C29.412,60.82,28.289,60,27,60c-0.349,0-0.689,0.061-1.011,0.18C25.824,57.847,23.874,56,21.5,56 c-1.831,0-3.466,1.127-4.153,2.774C16.667,58.276,15.845,58,15,58c-2.206,0-4,1.794-4,4c0,0.048,0.001,0.095,0.004,0.142 C9.261,62.59,8,64.169,8,66C8,68.206,9.794,70,12,70z"></path><path fill="#472b29" d="M17.5,69c0.159,0,0.841,0,1,0c0.276,0,0.5,0.224,0.5,0.5c0,0.276-0.224,0.5-0.5,0.5 c-0.159,0-0.841,0-1,0c-0.276,0-0.5-0.224-0.5-0.5C17,69.224,17.224,69,17.5,69z"></path></g>
</svg>